<svg width="40" height="40" viewBox="0 0 40 40" fill="none" xmlns="http://www.w3.org/2000/svg">
<g clip-path="url(#clip0_563_2107)">
<path d="M11.4238 15.5332C10.8312 15.5332 10.3516 16.0129 10.3516 16.6055C10.3516 17.1982 10.8313 17.6778 11.4238 17.6778C12.0159 17.6778 12.4961 17.1982 12.4961 16.6055C12.4961 16.0128 12.0158 15.5332 11.4238 15.5332Z" fill="white"/>
<path d="M15.3982 9.35049C15.4674 10.7591 18.0472 6.4494 17.9214 4.55627C17.7943 2.66455 15.2711 6.82729 15.3982 9.35049Z" fill="white"/>
<path d="M3.72242 21.4803L3.71961 21.4719C3.71891 21.4705 3.7182 21.467 3.7175 21.4663C3.7175 21.4648 3.7168 21.4648 3.7168 21.4648L3.72242 21.4803Z" fill="white"/>
<path d="M7.18066 1.68828L7.19051 1.67555C7.19051 1.67555 7.19199 1.67406 7.1934 1.67273C7.1934 1.67273 7.19402 1.67055 7.1948 1.66992L7.18066 1.68828Z" fill="white"/>
<path d="M29.3893 39.7637L29.3378 39.7963C29.3364 39.7963 29.3357 39.7984 29.335 39.7984L29.3893 39.7637Z" fill="white"/>
<path d="M20.7422 1.29492L20.7506 1.31195L20.7521 1.31266L20.7422 1.29492Z" fill="white"/>
<path d="M19.8376 0.357422C19.8376 0.357422 19.8376 0.357422 19.8369 0.357422L19.8391 0.358828L19.8376 0.357422Z" fill="white"/>
<path d="M34.6243 30.6417C34.6327 30.4849 34.6525 30.338 34.6525 30.1734C34.6532 28.7352 34.3466 27.1847 33.6155 25.5784C32.2161 22.4688 29.8716 20.7191 27.5293 19.6052L27.5215 19.6009L27.3471 19.5176L27.5047 19.5939C25.1714 18.4834 22.7993 17.8852 21.0532 17.041L21.0504 17.0388C19.9371 16.4929 19.3112 15.7631 18.8958 14.6908L18.8944 14.6873L18.8916 14.6788L18.8796 14.6462L18.8747 14.6329C18.8054 14.4598 18.4904 13.4539 18.4995 12.7355V12.7313V12.7227C18.4989 12.5186 18.5229 12.3364 18.5554 12.2205L18.5568 12.2149C18.6642 11.789 19.0386 11.108 19.4864 10.3246L19.4879 10.3225C19.9314 9.52781 20.4515 8.58477 20.7467 7.45102C21.1013 6.07852 21.29 4.8543 21.2906 3.78633C21.2864 2.87992 21.1649 2.045 20.7537 1.31602L20.7509 1.31109C20.539 0.943047 20.2395 0.601875 19.8382 0.358906C19.4434 0.118672 18.9948 0.005 18.5456 0.0021875V0.00140625L18.5285 0V0.00140625C18.5257 0.00140625 18.5186 0.00210938 18.5157 0.00210938V0.00140625C18.5122 0.00140625 18.5093 0.00210938 18.5065 0.00210938C18.4847 0.00210938 18.4557 0.00703125 18.4056 0.0141406C17.4929 0.0572656 16.6453 0.468359 15.7679 1.09352L15.7637 1.09633C14.6759 1.88961 13.8847 2.92867 13.2928 4.00664C13.1671 3.7107 13.049 3.40555 12.9007 3.13852L12.9 3.13711C12.4954 2.41445 12.0213 1.79852 11.4604 1.32594H11.4597C10.9116 0.865391 10.2257 0.514297 9.4345 0.500938V0.497344L9.38215 0.495859C8.49856 0.496563 7.70942 0.971953 7.19387 1.67273C6.68106 2.35789 6.36309 3.2318 6.15895 4.31602V4.31812C6.06989 4.80062 6.03106 5.28305 6.03106 5.75562V5.75922C6.04809 8.09102 6.91262 10.2045 7.5159 11.4287C6.71832 12.0476 5.60293 13.0527 4.70442 14.4457L4.74825 14.3779L4.70371 14.4465C3.55723 16.2343 3.09668 17.6676 3.09668 18.9228C3.09528 20.041 3.47106 20.8908 3.71762 21.4673C4.11387 22.4266 4.81887 23.051 5.52809 23.3703V23.3717C6.03176 23.597 6.47957 23.7249 6.86668 23.845L6.83778 24.04L7.65575 24.1502C7.71653 24.1784 7.76317 24.2003 7.78153 24.2123L7.78293 24.2145C8.05418 24.3839 8.3127 24.6008 8.6002 25.0176C8.88489 25.4337 9.18723 26.0574 9.46973 27.004L9.47122 27.0075C9.75582 27.9661 10.3344 29.5399 10.8458 31.1462V31.1484C11.0987 31.936 11.3318 32.7342 11.4985 33.4321C11.6666 34.1258 11.7633 34.7347 11.7599 35.0583V35.0738V35.078L11.7542 35.2003C11.4767 35.4991 11.2597 35.8269 11.1397 36.1581C10.9871 36.5749 10.9383 36.9824 10.9376 37.3412L10.9384 37.3646V37.3596C10.9405 37.8654 11.0275 38.3027 11.1129 38.6255C11.1567 38.7866 11.2004 38.92 11.2343 39.0168L11.2775 39.1305H11.2781L11.2887 39.1623L11.43 39.5035L11.6369 40.0001H16.665H17.0543H29.0134L29.3327 39.8002L29.3376 39.7967C29.8307 39.4831 30.6218 38.8254 31.4794 37.8732C31.9272 38.0548 32.4154 38.1656 32.9331 38.1656C35.1229 38.1649 36.8939 36.3919 36.8946 34.2048C36.8932 32.6197 35.9607 31.2691 34.6243 30.6417ZM32.9332 36.3494C32.3978 36.3494 31.916 36.1459 31.5317 35.8132L31.1242 35.4579L30.7978 35.888C29.9064 37.0677 28.9364 37.873 28.4836 38.1831H17.6646C17.6922 38.0227 17.738 37.8398 17.8186 37.659C17.986 37.2923 18.2501 36.9505 18.8167 36.7393L18.472 35.7913C17.6279 36.093 17.134 36.697 16.8953 37.2522C16.7419 37.6011 16.6784 37.9233 16.6494 38.1832H12.8787C12.8179 37.9635 12.753 37.664 12.7544 37.3567C12.7572 36.9434 12.8575 36.591 13.1429 36.3466L13.2199 36.2802L13.1443 36.3452C13.335 36.1798 13.4382 35.9659 13.4968 35.7546C13.5561 35.5412 13.5766 35.318 13.5766 35.0779C13.5695 33.9209 13.0998 32.2523 12.5764 30.5952C12.0522 28.9499 11.4631 27.3402 11.213 26.4917C10.8217 25.1658 10.34 24.2616 9.79879 23.6111C10.4897 23.6895 10.9325 23.7312 10.9361 23.7312L11.0273 22.7259C11.0266 22.7259 10.6861 22.6942 10.1224 22.632C9.62645 22.5777 8.95543 22.4957 8.2052 22.3925C7.76161 22.1954 7.33629 22.0803 6.97465 21.9708C6.59106 21.8563 6.27528 21.742 6.02668 21.5723C5.77731 21.4 5.57309 21.1789 5.3895 20.7586C5.13809 20.1709 4.91411 19.6375 4.9134 18.9227C4.9134 18.1266 5.19879 17.0445 6.23364 15.4261C6.86301 14.4413 7.67957 13.6417 8.33653 13.0963C8.66575 12.823 8.95387 12.6132 9.15879 12.472C9.26051 12.4013 9.34098 12.349 9.39614 12.3137L9.45692 12.2755L9.47457 12.2649L9.91606 12.0022L9.64481 11.5649L9.62793 11.5366C9.43715 11.2329 7.83793 8.42992 7.84786 5.75555C7.84786 5.38117 7.87817 5.00961 7.94535 4.64797C8.11348 3.73391 8.37621 3.11648 8.64465 2.76469C8.92153 2.41156 9.15043 2.31898 9.39762 2.31336C9.63567 2.31125 9.94856 2.42992 10.2926 2.71742C11.3311 3.56867 12.4104 5.84742 12.493 8.67445C12.3065 9.56945 12.2486 10.172 12.2464 10.1854L13.251 10.2822C13.251 10.2822 13.2587 10.203 13.2792 10.0484C13.3499 9.50664 13.5766 8.09023 14.1248 6.58289C14.6694 5.07336 15.5418 3.48961 16.8275 2.56852C17.5832 2.01961 18.1732 1.81266 18.5222 1.81836C18.6854 1.81836 18.7976 1.85289 18.8972 1.91227C19.042 1.99984 19.1854 2.17016 19.297 2.48664C19.4079 2.79953 19.475 3.24172 19.4743 3.78641C19.475 4.63547 19.316 5.73039 18.9882 6.99477C18.7664 7.85586 18.3398 8.65906 17.9032 9.4325C17.4696 10.2081 17.0224 10.9484 16.8027 11.7409C16.7151 12.0637 16.6833 12.3965 16.6833 12.7228C16.6882 14.0304 17.1807 15.2835 17.1961 15.3316H17.1954C17.7351 16.7846 18.7565 17.9614 20.2682 18.6798C22.2716 19.6328 24.6182 20.2198 26.7437 21.2433C28.87 22.2704 30.7589 23.6881 31.9611 26.3293C32.5898 27.7152 32.8349 28.9945 32.8357 30.1734C32.8357 30.6327 32.7975 31.0763 32.7297 31.5057L32.6464 32.027L33.1719 32.0864C34.2449 32.2065 35.0792 33.1043 35.0785 34.2048C35.0764 35.388 34.1185 36.3473 32.9332 36.3494Z" fill="white"/>
<path d="M33.6152 25.5781L33.6159 25.5795L33.6152 25.5781Z" fill="white"/>
</g>
<defs>
<clipPath id="clip0_563_2107">
<rect width="40" height="40" fill="white" transform="translate(-0.00390625)"/>
</clipPath>
</defs>
</svg>
