<svg width="40" height="40" viewBox="0 0 40 40" fill="none" xmlns="http://www.w3.org/2000/svg">
<g clip-path="url(#clip0_563_2110)">
<path d="M34.3329 3.99015C33.8621 2.95374 33.2438 1.98788 32.3873 1.24093C31.5381 0.49327 30.4055 -0.00649528 29.1357 0.000145343C28.4877 -0.000479657 27.8759 0.136005 27.3346 0.371317C26.3833 0.78538 25.6653 1.47296 25.1148 2.20999C24.2907 3.3203 23.8028 4.57358 23.493 5.56249C23.4105 5.82882 23.342 6.07405 23.2846 6.29491H21.0147H18.9847H16.7141C16.548 5.64554 16.2757 4.76538 15.8498 3.84897C15.4365 2.97147 14.8847 2.05569 14.0797 1.30741C13.6775 0.934911 13.2075 0.606005 12.6648 0.371239C12.1235 0.135927 11.5111 -0.000635907 10.8637 6.72183e-05C9.60117 -0.00657341 8.47188 0.479364 7.62 1.21444C6.33516 2.32343 5.57109 3.90241 5.0707 5.53546C4.57687 7.17507 4.36656 8.89054 4.36523 10.3555C4.36523 12.5891 4.36523 21.32 4.36523 24.5689C4.36586 25.8123 4.55914 27.3576 5.03836 29.0137C5.75828 31.4913 7.13094 34.2287 9.54391 36.3739C11.9509 38.5219 15.4049 40.0079 19.9995 40C23.0631 40.0012 25.6192 39.3506 27.6966 38.27C30.8189 36.6495 32.8172 34.0955 34.0092 31.5459C35.2045 28.9859 35.631 26.4299 35.6343 24.5688C35.6343 21.3199 35.6343 12.5891 35.6343 10.3554C35.6284 8.4653 35.2652 6.06944 34.3329 3.99015ZM33.1977 24.5689C33.1983 25.5584 33.0361 26.9067 32.6208 28.3347C31.9984 30.4826 30.8156 32.7994 28.8384 34.551C26.856 36.3008 24.085 37.5554 19.9995 37.5633C17.276 37.562 15.1373 36.995 13.4264 36.1082C10.8664 34.7778 9.22414 32.6965 8.19633 30.5116C7.5318 29.1008 7.14414 27.6503 6.95359 26.3964C7.93523 26.3964 9.6468 26.3964 11.9984 26.3964C15.8612 26.3964 18.4363 22.6787 18.4363 19.6744C18.4363 17.3636 18.4363 11.3753 18.4363 8.73093H18.9848H21.0148H25.3015L25.4663 7.70772C25.4682 7.67538 25.7313 6.18147 26.3879 4.81616C26.7116 4.13374 27.1323 3.49429 27.5964 3.07632C27.8291 2.86538 28.0677 2.70718 28.315 2.60163C28.5648 2.49616 28.8246 2.43741 29.1358 2.43679C29.7951 2.44335 30.2869 2.65304 30.7899 3.08093C31.5363 3.71515 32.189 4.92358 32.5957 6.29952C33.0104 7.66811 33.1996 9.18452 33.1977 10.3554C33.1977 12.5891 33.1977 21.32 33.1977 24.5689Z" fill="white"/>
<path d="M19.7962 27.4102C18.0022 27.4102 16.5479 28.502 16.5479 29.8469C16.5479 31.1925 18.0022 32.2836 19.7962 32.2836C21.5907 32.2836 23.0451 31.1925 23.0451 29.8469C23.0452 28.502 21.5908 27.4102 19.7962 27.4102Z" fill="white"/>
<path d="M26.0912 21.5222C27.2127 21.5222 28.1218 20.613 28.1218 19.4916C28.1218 18.3701 27.2127 17.4609 26.0912 17.4609C24.9697 17.4609 24.0605 18.3701 24.0605 19.4916C24.0605 20.613 24.9697 21.5222 26.0912 21.5222Z" fill="white"/>
<path d="M29.0688 5.55078C27.716 5.55078 27.4443 8.39359 27.4443 8.39359H30.4229C30.4229 8.39359 30.4216 5.55078 29.0688 5.55078Z" fill="white"/>
</g>
<defs>
<clipPath id="clip0_563_2110">
<rect width="40" height="40" fill="white"/>
</clipPath>
</defs>
</svg>
