<svg width="40" height="40" viewBox="0 0 40 40" fill="none" xmlns="http://www.w3.org/2000/svg">
<path d="M40 10.6451V12.9898C40 14.5285 37.9413 15.3086 33.8808 15.3086C33.5663 15.3086 33.2795 15.2982 33.0169 15.2801C31.8195 17.4736 30.4329 19.3052 28.8907 20.7255C27.3088 22.1821 26.0277 22.7791 25.4056 23.0046C24.9797 23.1592 24.6773 23.5454 24.616 24.011C24.4251 25.4659 24.1037 28.1234 24.1037 29.5774C24.1037 31.2862 25.0773 31.7398 25.0868 31.7441C25.3719 31.8633 25.5343 32.1666 25.473 32.4698C25.4125 32.7721 25.1473 32.9899 24.838 32.9899H23.2959C22.2721 32.9899 21.3805 32.2996 21.1291 31.3096C20.6963 29.6093 20.1633 27.2517 20.0509 25.5748L19.8713 25.1264C18.8086 25.4971 17.4263 25.612 15.9809 25.612C14.7092 25.612 13.39 25.523 12.197 25.4435C10.8579 25.3537 9.59305 25.269 9.07039 25.3744C9.04273 25.3804 9.01508 25.3839 8.98742 25.3857C7.43063 26.8258 5.58266 27.758 4.51484 28.2953C4.34469 28.3817 4.15977 28.4742 4.02844 28.545C3.80125 30.9563 4.21156 32.0154 4.42242 32.3852H4.79477C5.15242 32.3852 5.44273 32.6755 5.44273 33.0331C5.44273 33.3917 5.15242 33.6811 4.79477 33.6811H3.4125C3.28461 33.6811 3.15938 33.644 3.05313 33.5723L0.979688 32.19C0.825938 32.0881 0.723984 31.9256 0.698047 31.7434L0.006875 26.9053C-0.0233594 26.6928 0.0526563 26.4803 0.209922 26.336C0.930469 25.6734 2.07344 24.279 2.07344 23.3572C2.07344 22.8699 1.73477 22.3256 1.34344 21.695C0.744687 20.7315 0 19.5332 0 17.8278C0 14.1821 3.48336 8.88612 8.94172 8.88612C11.6251 8.88612 14.7119 9.53581 17.435 10.1077C19.5127 10.5449 21.4748 10.9569 22.7525 10.9596C23.3288 10.8784 26.2937 9.03042 27.6622 7.84682C27.6484 7.71549 27.6423 7.58073 27.6458 7.44424C27.6596 6.91378 27.9628 6.51378 28.4562 6.37385C29.0739 6.19846 29.8237 6.49393 30.2152 6.68573C30.3974 6.77557 30.7473 6.96307 31.0756 7.2326C34.7128 6.81276 38.0553 8.62698 39.3357 9.43737C39.7512 9.70003 40 10.1518 40 10.6451ZM38.7041 12.9899V10.6452C38.7041 10.5977 38.6826 10.5571 38.6428 10.532C37.7702 9.98081 34.7923 8.27885 31.6139 8.48448C31.5655 8.56659 31.4981 8.63823 31.4134 8.6944C31.1145 8.89049 30.7128 8.80674 30.5166 8.5069C30.2384 8.08268 29.3495 7.65417 28.9434 7.61448C28.9832 8.41706 29.5016 9.14276 29.5067 9.15057C29.7192 9.43909 29.657 9.84432 29.3685 10.0568C29.2527 10.1415 29.1188 10.1821 28.9858 10.1821C28.7863 10.1821 28.5901 10.0914 28.4631 9.91854C28.4459 9.89518 28.248 9.62221 28.051 9.19971C27.4177 9.69651 26.5754 10.2917 25.7322 10.8308C23.505 12.2554 22.9667 12.2554 22.7646 12.2554C21.3521 12.2554 19.4134 11.8485 17.1689 11.376C14.5071 10.817 11.4903 10.182 8.94172 10.182C6.86227 10.182 4.88992 11.1332 3.38836 12.8593C2.09766 14.3435 1.29594 16.2477 1.29594 17.8278C1.29594 19.1634 1.87906 20.1025 2.44414 21.0105C2.92016 21.7768 3.36937 22.4999 3.36937 23.3569C3.36937 24.8481 1.94562 26.4368 1.33656 27.0493L1.93961 31.2722L2.86922 31.8925C2.6757 31.0666 2.57719 29.8623 2.76813 28.1249C2.81477 27.7007 3.09641 27.5591 3.93187 27.1383C5.38844 26.4049 8.41828 24.8782 9.75133 22.3625C9.91891 22.0464 10.3112 21.9263 10.6273 22.0939C10.9435 22.2614 11.0645 22.6537 10.8969 22.9699C10.6973 23.3457 10.4675 23.6999 10.2161 24.0351C10.8053 24.0506 11.5034 24.0973 12.2835 24.15C14.5695 24.3038 17.6416 24.5085 19.3894 23.9211L18.7077 22.2157C18.5747 21.8832 18.7362 21.5064 19.068 21.3734C19.4005 21.2403 19.7781 21.4019 19.9103 21.7345L21.2926 25.1902C21.3185 25.2549 21.3341 25.3241 21.3384 25.3941C21.4334 27.0554 22.0347 29.6135 22.3855 30.9898C22.4909 31.4045 22.8649 31.6939 23.296 31.6939H23.3073C23.0248 31.1894 22.8079 30.5008 22.8079 29.5773C22.8079 28.1259 23.0921 25.6576 23.3314 23.8425C23.4558 22.8948 24.0813 22.1069 24.9634 21.7872C25.5845 21.5609 28.7292 20.2045 31.6537 15.0649C30.9046 14.8602 30.4312 14.5457 29.9734 14.1958C29.6891 13.9789 29.6355 13.5721 29.8524 13.2878C30.0702 13.0036 30.477 12.9492 30.7612 13.1669C31.4291 13.6774 32.007 14.0127 33.8809 14.0127C37.5248 14.0128 38.7041 13.3242 38.7041 12.9899Z" fill="white"/>
<path d="M33.1321 9.57812C33.4898 9.57812 33.7801 9.86844 33.7801 10.2261C33.7801 10.5846 33.4898 10.8741 33.1321 10.8741H32.4409C32.0833 10.8741 31.793 10.5846 31.793 10.2261C31.793 9.86844 32.0833 9.57812 32.4409 9.57812H33.1321Z" fill="white"/>
</svg>
