<svg width="40" height="40" viewBox="0 0 40 40" fill="none" xmlns="http://www.w3.org/2000/svg">
<g clip-path="url(#clip0_563_2104)">
<path d="M9.48422 9.24805C8.88445 9.24805 8.39648 9.73602 8.39648 10.3358C8.39648 10.9355 8.88445 11.4235 9.48422 11.4235C10.0841 11.4235 10.572 10.9355 10.572 10.3358C10.572 9.73602 10.0841 9.24805 9.48422 9.24805Z" fill="white"/>
<path d="M34.0491 30.4455L31.105 30.4456V25.1738C31.105 21.1132 27.8015 17.8097 23.7409 17.8097H18.3859V10.2103C18.3859 6.1268 15.0638 2.80469 10.9803 2.80469C7.03422 2.80469 3.79898 5.90727 3.58578 9.80117C2.75625 9.91867 1.98773 10.2216 1.36812 10.6828C0.498672 11.3298 0 12.2484 0 13.203C0 14.1577 0.498672 15.0763 1.36805 15.7234C1.98508 16.1826 2.7493 16.4848 3.57461 16.6035V23.8023C3.57461 28.1982 7.03609 31.8008 11.3766 32.0277C11.7487 34.1106 13.5721 35.697 15.7604 35.697C16.2004 35.697 16.5572 35.3402 16.5572 34.9002V32.0393H22.3538C21.184 33.1267 20.4502 34.6773 20.4502 36.3966C20.4502 36.8366 20.807 37.1934 21.247 37.1934H25.0709C27.2714 37.1934 29.1953 35.992 30.2251 34.2115C31.2547 35.992 33.1786 37.1934 35.3793 37.1934H39.2033C39.6433 37.1934 40.0001 36.8366 40.0001 36.3966C40 33.1151 37.3305 30.4455 34.0491 30.4455ZM14.9635 33.9905C14.0256 33.718 13.2848 32.9772 13.0123 32.0392H14.9635V33.9905ZM25.071 35.5997H22.1168C22.4922 33.5761 24.2704 32.0391 26.4011 32.0391L29.3553 32.0392C28.9798 34.0627 27.2015 35.5997 25.071 35.5997ZM29.5113 30.4455H11.8116C8.14836 30.4455 5.1682 27.4654 5.1682 23.8022V15.8632C5.1682 15.4232 4.81141 15.0664 4.37141 15.0664C2.86578 15.0665 1.59367 14.2132 1.59367 13.203C1.59367 12.193 2.86578 11.3397 4.37141 11.3397C4.81141 11.3397 5.1682 10.9829 5.1682 10.5429V10.2103C5.1682 7.00555 7.77555 4.39828 10.9802 4.39828C14.1849 4.39828 16.7923 7.00562 16.7923 10.2103V20.6848C16.7923 21.1248 17.1491 21.4816 17.5891 21.4816C18.0291 21.4816 18.3859 21.1248 18.3859 20.6848V19.4034H23.7408C26.9227 19.4034 29.5113 21.992 29.5113 25.1739V30.4455ZM35.3792 35.5997C33.2486 35.5997 31.4702 34.0627 31.0948 32.0391H34.0491C36.1797 32.0391 37.958 33.5761 38.3334 35.5997H35.3792Z" fill="white"/>
<path d="M17.5888 22.3828C17.1488 22.3828 16.792 22.7396 16.792 23.1796V23.5952C16.792 24.0352 17.1488 24.392 17.5888 24.392C18.0288 24.392 18.3856 24.0352 18.3856 23.5952V23.1796C18.3857 22.7396 18.0289 22.3828 17.5888 22.3828Z" fill="white"/>
</g>
<defs>
<clipPath id="clip0_563_2104">
<rect width="40" height="40" fill="white"/>
</clipPath>
</defs>
</svg>
