<svg width="40" height="40" viewBox="0 0 40 40" fill="none" xmlns="http://www.w3.org/2000/svg">
<g clip-path="url(#clip0_563_2109)">
<path d="M39.6872 7.63384L35.0707 4.96128C34.6688 4.19926 34.1148 3.5181 33.4273 2.95685C32.0799 1.85671 30.3847 1.34687 28.6539 1.5221C27.1063 1.67843 25.6641 2.38436 24.5933 3.50997C23.5917 4.56285 22.9711 5.92034 22.829 7.35579L5.7563 28.2661C5.62607 28.4257 5.58255 28.6389 5.63998 28.8368C5.6974 29.0346 5.84841 29.1914 6.04388 29.2564C6.81262 29.5118 7.58511 29.7199 8.35815 29.8802L6.7402 31.2536C6.47653 31.4774 6.44426 31.8725 6.66809 32.1361C6.89192 32.3998 7.28691 32.4321 7.55058 32.2082L9.9804 30.1456C10.2472 30.1777 10.5138 30.2041 10.7801 30.2247C10.8652 30.2314 10.9503 30.2379 11.0352 30.2434C11.0531 30.2446 11.0709 30.2455 11.0887 30.2466C12.1746 30.3142 13.2385 30.285 14.2745 30.1587C14.3529 30.1493 14.4307 30.1388 14.5086 30.1284C14.5296 30.1256 14.5507 30.1228 14.5716 30.1198C14.7279 30.1522 14.8834 30.1832 15.0379 30.2128C11.8905 34.4477 6.92176 37.0753 1.61275 37.2487L5.9881 33.5345C6.25177 33.3107 6.28403 32.9156 6.0602 32.652C5.83654 32.3884 5.44146 32.3562 5.17771 32.5799L0.371901 36.6595C0.0324508 36.9478 -0.0877044 37.4041 0.0658879 37.8221C0.219402 38.24 0.606351 38.5101 1.05166 38.5101C4.2853 38.5101 7.47972 37.6642 10.2895 36.0637C12.7281 34.6747 14.8251 32.7462 16.4147 30.4435C17.5664 30.6077 18.6664 30.6908 19.7124 30.6908C20.2555 30.6908 20.7837 30.6681 21.2977 30.624V33.9458L19.0785 35.5257C18.7968 35.7263 18.7311 36.1173 18.9316 36.3989C19.132 36.6806 19.5229 36.7464 19.8047 36.5459L21.7405 35.1678L22.6053 36.5789C22.7234 36.7716 22.929 36.8779 23.1397 36.8779C23.2512 36.8779 23.3642 36.8482 23.4662 36.7855C23.761 36.6048 23.8535 36.2193 23.6729 35.9246L23.3173 35.3443L24.8107 35.7961L25.779 37.2007C25.9005 37.3768 26.096 37.4714 26.2951 37.4714C26.4177 37.4714 26.5413 37.4356 26.6499 37.3607C26.9345 37.1645 27.0063 36.7746 26.8099 36.4899L25.7173 34.9048C25.6367 34.788 25.5189 34.7019 25.383 34.6609L23.3439 34.0441L25.1668 32.7463L26.0316 34.1574C26.1497 34.3501 26.3553 34.4565 26.5659 34.4565C26.6775 34.4565 26.7904 34.4267 26.8925 34.3641C27.1873 34.1834 27.2798 33.798 27.0991 33.5031L26.7435 32.9229L28.2369 33.3746L29.2052 34.7792C29.3267 34.9554 29.5222 35.05 29.7213 35.05C29.8439 35.05 29.9676 35.0141 30.0761 34.9393C30.3608 34.743 30.4325 34.3531 30.2361 34.0684L29.1435 32.4834C29.063 32.3666 28.9451 32.2805 28.8092 32.2395L25.976 31.3825V29.4333C26.6809 29.1061 27.3417 28.7152 27.9578 28.2607C31.9941 25.2826 33.248 20.2237 33.5892 16.5041C33.6207 16.1598 33.3672 15.8551 33.0229 15.8234C32.6782 15.7916 32.3739 16.0454 32.3422 16.3898C32.0244 19.854 30.8768 24.5507 27.2144 27.253C24.826 29.0151 21.6475 29.7141 17.7353 29.3414C18.4534 29.0796 19.1405 28.7645 19.7925 28.3979C19.7962 28.3958 19.7999 28.3936 19.8036 28.3916C19.9212 28.3254 20.0376 28.2574 20.153 28.1878C20.1748 28.1746 20.1966 28.1613 20.2183 28.148C20.3158 28.0884 20.4123 28.0276 20.508 27.9657C20.538 27.9464 20.5679 27.9272 20.5976 27.9076C20.6868 27.8489 20.7751 27.7888 20.8627 27.7279C20.8937 27.7064 20.9252 27.6853 20.9561 27.6635C21.0512 27.5963 21.1451 27.5275 21.2383 27.4579C21.2588 27.4425 21.2798 27.4278 21.3003 27.4124C21.4105 27.329 21.5194 27.2437 21.6269 27.1569C21.6644 27.1266 21.7011 27.0952 21.7382 27.0646C21.8081 27.0068 21.8779 26.949 21.9466 26.8897C21.9916 26.8509 22.0358 26.8113 22.0804 26.7718C22.1404 26.7186 22.2004 26.6651 22.2594 26.6109C22.3049 26.5691 22.3499 26.5267 22.3948 26.4843C22.4524 26.4297 22.5096 26.3748 22.5663 26.3191C22.6098 26.2765 22.653 26.2337 22.6959 26.1904C22.7541 26.1317 22.8115 26.0721 22.8687 26.0122C22.9082 25.9708 22.9479 25.9296 22.9868 25.8877C23.0499 25.8198 23.1118 25.7508 23.1736 25.6815C23.2052 25.646 23.2373 25.6111 23.2686 25.5751C23.3611 25.4691 23.4522 25.3616 23.5416 25.2523C23.6034 25.1766 23.6643 25.1002 23.7242 25.0234C23.74 25.0031 23.7553 24.9824 23.7708 24.9622C23.8149 24.905 23.8588 24.8477 23.9019 24.7898C23.9184 24.7678 23.9343 24.7453 23.9505 24.7231C23.9924 24.6661 24.0342 24.609 24.075 24.5513C24.0898 24.5305 24.1042 24.5094 24.1188 24.4884C24.1607 24.4286 24.2024 24.3687 24.2432 24.3082C24.2558 24.2895 24.2682 24.2705 24.2807 24.2516C24.3232 24.188 24.3653 24.1244 24.4065 24.0601C24.4166 24.0443 24.4265 24.0284 24.4367 24.0125C24.4801 23.9444 24.5229 23.8759 24.565 23.807C24.5725 23.7947 24.5798 23.7823 24.5872 23.7701C24.6317 23.6968 24.6753 23.6231 24.7184 23.5489C24.7232 23.5405 24.7281 23.532 24.7329 23.5236C24.7784 23.4445 24.8231 23.3652 24.8671 23.2852C24.8691 23.2816 24.871 23.2779 24.873 23.2743C25.2835 22.5244 25.6208 21.7331 25.8823 20.9077C26.7078 18.38 26.7784 15.5287 26.0891 12.6246C25.6815 10.8862 25.0057 9.16093 24.0776 7.50688C24.0759 7.50368 24.0742 7.50056 24.0725 7.49735C24.3075 4.99777 26.2603 3.02232 28.7798 2.76779C30.1775 2.6267 31.5471 3.03818 32.6354 3.92676C33.23 4.4123 33.7009 5.00902 34.0297 5.67792C34.0308 5.68018 34.0313 5.68253 34.0324 5.68479C34.0989 5.82042 34.1592 5.95862 34.2135 6.09877C34.2167 6.10698 34.2199 6.11502 34.2231 6.12315C34.2459 6.18307 34.2674 6.24354 34.2881 6.30432C34.2947 6.324 34.3013 6.34369 34.3077 6.36346C34.3249 6.41596 34.3412 6.46869 34.3567 6.52182C34.3653 6.55135 34.3735 6.58119 34.3816 6.61096C34.3941 6.65681 34.4063 6.70267 34.4177 6.74892C34.4271 6.78775 34.4356 6.82689 34.4442 6.86603C34.4528 6.90525 34.4617 6.94447 34.4695 6.984C34.4793 7.03376 34.4876 7.08392 34.4959 7.13415C34.501 7.1647 34.5068 7.19501 34.5114 7.22572C34.5234 7.30689 34.5338 7.38845 34.5422 7.47056C34.5423 7.47126 34.5424 7.47188 34.5424 7.47267C34.5506 7.55306 34.5561 7.63329 34.5606 7.71344C34.5616 7.73212 34.5628 7.75094 34.5637 7.76962C34.567 7.8429 34.5687 7.9161 34.569 7.98915C34.5691 8.01524 34.5687 8.04141 34.5683 8.0675C34.5677 8.12203 34.5661 8.17641 34.5638 8.23078C34.562 8.27219 34.5598 8.31352 34.557 8.35484C34.5539 8.40219 34.5501 8.44945 34.5457 8.49656C34.5424 8.53219 34.5389 8.56789 34.5349 8.60344C34.5279 8.66429 34.5199 8.72508 34.5107 8.78562C34.5056 8.81992 34.4997 8.85406 34.4938 8.8882C34.4855 8.93703 34.4765 8.98585 34.4667 9.03453C34.4596 9.06992 34.4523 9.10531 34.4445 9.14054C34.4314 9.19898 34.4176 9.25726 34.4026 9.3153C34.397 9.33702 34.3915 9.35882 34.3856 9.38038C34.3658 9.45327 34.3444 9.52577 34.3213 9.59803C34.0167 10.5538 33.4399 11.4169 32.6366 12.0746C32.4806 12.2024 32.3956 12.3975 32.4084 12.5988C32.4328 12.9836 32.4596 13.6081 32.4482 14.397C32.4431 14.7428 32.7193 15.0271 33.0651 15.0322C33.0682 15.0322 33.0713 15.0323 33.0744 15.0323C33.4159 15.0323 33.6953 14.758 33.7003 14.4153C33.7096 13.7729 33.6949 13.2325 33.6756 12.8323C34.4548 12.1278 35.0406 11.2588 35.4018 10.3033C36.9333 9.76764 39.5671 8.77211 39.5955 8.76148C39.8217 8.67601 39.9783 8.46789 39.998 8.22688C40.0172 7.98571 39.8964 7.75501 39.6872 7.63384ZM22.5498 30.4679C23.3103 30.3423 24.0353 30.1637 24.724 29.9317V31.5244L22.5498 33.0723V30.4679ZM24.0763 10.4068C24.1299 10.5419 24.1827 10.6772 24.2328 10.8126L24.2569 10.8789C25.9894 15.6248 25.5214 20.5246 22.8799 24.0654C22.875 24.0719 22.87 24.0784 22.8651 24.0848C22.77 24.2117 22.6725 24.337 22.5718 24.4603C22.5025 24.5451 22.4321 24.6284 22.3608 24.7109C22.3391 24.7361 22.317 24.7608 22.295 24.7857C22.2439 24.844 22.1924 24.9017 22.1402 24.9588C22.1158 24.9855 22.0913 25.012 22.0667 25.0384C22.0133 25.0958 21.9593 25.1526 21.9049 25.2087C21.8831 25.2312 21.8615 25.2538 21.8395 25.2761C21.7682 25.3484 21.6962 25.42 21.6233 25.4905C21.6185 25.4951 21.6137 25.4999 21.609 25.5045C21.5272 25.583 21.4443 25.6604 21.3604 25.7365C21.3494 25.7465 21.3382 25.7562 21.3272 25.7662C21.2565 25.8297 21.1852 25.8925 21.1131 25.9542C21.0926 25.9718 21.0719 25.9893 21.0512 26.0067C20.9863 26.0615 20.9209 26.1156 20.8549 26.169C20.8332 26.1865 20.8115 26.2042 20.7897 26.2216C20.7183 26.2786 20.6462 26.3346 20.5735 26.3898C20.5583 26.4013 20.5433 26.4131 20.5282 26.4247C20.4394 26.4915 20.3497 26.5572 20.259 26.6217C20.2469 26.6302 20.2346 26.6385 20.2225 26.647C20.1477 26.6997 20.0723 26.7516 19.9962 26.8026C19.9612 26.8261 19.9258 26.849 19.8905 26.8722C19.8378 26.9067 19.7848 26.9411 19.7314 26.9748C19.6873 27.0027 19.643 27.0304 19.5986 27.0578C19.5562 27.0839 19.5134 27.1095 19.4705 27.1352C19.4174 27.1669 19.3645 27.1987 19.3109 27.2297C19.29 27.2418 19.2688 27.2533 19.2479 27.2653C18.3665 27.7672 17.4102 28.1666 16.3895 28.4579C16.3885 28.4582 16.3877 28.4582 16.3867 28.4585C16.152 28.5257 15.9149 28.5864 15.676 28.6418C15.6082 28.6574 15.5401 28.6723 15.4718 28.687C15.4405 28.6938 15.4092 28.7004 15.3778 28.707C15.0868 28.7675 14.7913 28.82 14.4913 28.8638C14.4747 28.8662 14.4585 28.8695 14.4425 28.8732C14.4278 28.8753 14.413 28.8771 14.3983 28.8792C14.2968 28.8935 14.195 28.9064 14.0929 28.9188C14.0211 28.9273 13.949 28.935 13.8766 28.9426C13.8305 28.9475 13.7844 28.9524 13.7382 28.9568C13.63 28.9671 13.5215 28.9764 13.4123 28.9845C13.4009 28.9853 13.3894 28.9862 13.3779 28.9871C12.9916 29.0148 12.5996 29.0288 12.2023 29.0288C11.9382 29.0288 11.6733 29.0219 11.4081 29.0095C11.3473 29.0066 11.2866 29.0037 11.2258 29.0001C11.177 28.9973 11.1282 28.9942 11.0794 28.991C10.6797 28.9641 10.2767 28.9238 9.87048 28.8687C9.86782 28.8684 9.86509 28.8684 9.86236 28.868C9.014 28.7526 8.16347 28.5757 7.31519 28.3368L23.3168 8.73812C23.3275 8.75875 23.3386 8.77906 23.349 8.79968C23.3707 8.84218 23.391 8.88484 23.4123 8.92734C23.5232 9.1489 23.6297 9.3721 23.7313 9.59647C23.7468 9.63069 23.763 9.66483 23.7783 9.69905C23.7805 9.70428 23.7827 9.7096 23.7849 9.71475C23.8256 9.80631 23.8651 9.89874 23.9045 9.99116C23.9275 10.0452 23.9505 10.0994 23.9728 10.1534C24.0081 10.238 24.0427 10.3226 24.0763 10.4068ZM35.768 8.84359C35.8235 8.41703 35.8359 7.98493 35.8053 7.55009C35.8051 7.54673 35.805 7.54337 35.8048 7.54009C35.8002 7.47571 35.7947 7.41126 35.7881 7.34673C35.7777 7.24454 35.7648 7.14298 35.7498 7.04189C35.7441 7.0033 35.7368 6.96525 35.7305 6.92697C35.722 6.8765 35.7146 6.82572 35.705 6.77549L37.9142 8.05438C37.2731 8.2932 36.478 8.58734 35.768 8.84359Z" fill="white"/>
<path d="M31.3375 7.07936C31.7791 7.07936 32.137 6.72144 32.137 6.27991C32.137 5.83839 31.7791 5.48047 31.3375 5.48047C30.896 5.48047 30.5381 5.83839 30.5381 6.27991C30.5381 6.72144 30.896 7.07936 31.3375 7.07936Z" fill="white"/>
</g>
<defs>
<clipPath id="clip0_563_2109">
<rect width="40" height="40" fill="white"/>
</clipPath>
</defs>
</svg>
