<svg width="40" height="40" viewBox="0 0 40 40" fill="none" xmlns="http://www.w3.org/2000/svg">
<g clip-path="url(#clip0_563_2108)">
<path d="M33.4271 14.3498C33.3714 14.2677 33.3143 14.1868 33.2559 14.1067C32.9875 13.7384 32.4711 13.6575 32.1028 13.9262C31.7345 14.1948 31.6536 14.7109 31.9222 15.0793C31.9702 15.1451 32.0171 15.2116 32.0629 15.2789C32.2227 15.5134 32.4819 15.6398 32.7458 15.6398C32.9057 15.6398 33.0675 15.5933 33.2096 15.4965C33.5863 15.2398 33.6837 14.7264 33.4271 14.3498Z" fill="white"/>
<path d="M5.00563 20.5664H4.58508C4.1293 20.5664 3.75977 20.9359 3.75977 21.3917C3.75977 21.8475 4.12922 22.217 4.58508 22.217H5.00563C5.46141 22.217 5.83094 21.8476 5.83094 21.3917C5.83094 20.9359 5.46141 20.5664 5.00563 20.5664Z" fill="white"/>
<path d="M39.1747 19.5076H35.0462C35.0341 18.4692 34.8548 17.451 34.5096 16.4797C34.357 16.0502 33.8851 15.8257 33.4556 15.9784C33.0262 16.131 32.8017 16.603 32.9545 17.0324C33.2365 17.8259 33.3837 18.6581 33.3956 19.5075H26.8296V17.6498L30.2086 13.3687C30.3317 13.458 30.453 13.5499 30.5702 13.6461C30.9227 13.9352 31.4427 13.8837 31.7317 13.5313C32.0208 13.1788 31.9693 12.6588 31.6168 12.3698C31.257 12.0747 30.8722 11.805 30.4739 11.5673C30.4724 11.5664 30.4709 11.5655 30.4695 11.5645C30.4634 11.5609 30.4574 11.557 30.4514 11.5533C29.0114 10.6981 27.3601 10.2461 25.6759 10.2461H17.3596C15.6755 10.2461 14.0241 10.6981 12.5848 11.553C12.578 11.557 12.5715 11.5613 12.5648 11.5652C12.5639 11.5656 12.5631 11.5662 12.5623 11.5666C10.2299 12.9578 8.61524 15.3053 8.13641 17.9504H4.1257C3.02344 17.9504 1.98727 18.3795 1.20805 19.1586C0.429063 19.9377 0 20.9738 0 22.0763C0 23.5963 1.23625 24.8327 2.75563 24.8327H10.977V27.2773C10.977 28.6424 12.0875 29.7529 13.4525 29.7529H13.7952C15.1603 29.7529 16.2708 28.6423 16.2708 27.2773V24.8327H26.9206V27.2773C26.9206 28.6424 28.0312 29.7529 29.3962 29.7529H29.7398C31.1048 29.7529 32.2153 28.6423 32.2153 27.2773V24.6192C32.554 24.5057 32.8773 24.3475 33.1798 24.1472H36.1858C37.2041 24.1472 38.1619 23.7507 38.8838 23.03C39.6037 22.309 40.0002 21.3512 40.0002 20.3329C40 19.8771 39.6306 19.5076 39.1747 19.5076ZM25.6759 11.8968C26.7427 11.8968 27.793 12.1175 28.7605 12.5392L26.0378 15.9888L23.1202 11.8968H25.6759ZM25.179 17.6275V19.5077H17.8566V17.6275H17.8566L21.5181 12.493L25.179 17.6275ZM17.3596 11.8967H19.9159L16.9977 15.9888L14.2749 12.5391C15.2423 12.1175 16.2927 11.8967 17.3596 11.8967ZM2.75563 23.1821V23.182C2.14633 23.182 1.65063 22.6859 1.65063 22.0762C1.65063 21.4147 1.90805 20.793 2.37531 20.3258C2.84258 19.8584 3.46422 19.6011 4.1257 19.6011H7.98727C7.98727 19.607 7.98703 19.6128 7.98703 19.6187V20.3329V20.6791C7.98703 21.6184 8.30078 22.4855 8.82852 23.1821H2.75563ZM9.67445 18.8593C9.88859 16.6638 11.0509 14.6589 12.8266 13.368L16.206 17.6498V19.5075H9.64039C9.64344 19.2892 9.65352 19.0716 9.67445 18.8593ZM14.6201 27.2773C14.6201 27.7322 14.25 28.1023 13.7952 28.1023H13.4524C12.9976 28.1023 12.6275 27.7322 12.6275 27.2773V24.8327H14.6201V27.2773ZM30.5646 27.2773C30.5646 27.7322 30.1945 28.1023 29.7397 28.1023H29.3961C28.9413 28.1023 28.5712 27.7322 28.5712 27.2773V24.8327H30.5645L30.5646 27.2773ZM32.4213 22.6627C32.4191 22.6642 32.4169 22.6655 32.4148 22.6671C31.9759 23.004 31.4502 23.182 30.8947 23.182H27.7459H15.4454H12.1407C10.9244 23.182 9.90781 22.3099 9.68367 21.1582H17.0313H26.0041H33.3523C33.2383 21.752 32.9127 22.284 32.4213 22.6627ZM37.7166 21.8628C37.3072 22.2715 36.7636 22.4966 36.1857 22.4966H34.6327C34.8354 22.0797 34.9678 21.6285 35.0213 21.1581H38.1872C38.0799 21.4186 37.9213 21.6578 37.7166 21.8628Z" fill="white"/>
</g>
<defs>
<clipPath id="clip0_563_2108">
<rect width="40" height="40" fill="white"/>
</clipPath>
</defs>
</svg>
