<svg width="40" height="40" viewBox="0 0 40 40" fill="none" xmlns="http://www.w3.org/2000/svg">
<g clip-path="url(#clip0_563_2105)">
<path d="M38.1173 21.3511C38.2894 20.8452 38.6373 19.8014 38.9902 18.6005C39.2367 17.7619 39.4841 16.8526 39.6734 15.9986C39.8613 15.1401 39.997 14.3562 39.9999 13.676C39.9984 13.4108 39.9813 13.1586 39.9044 12.8831C39.8645 12.7454 39.8081 12.5987 39.7113 12.4468C39.6157 12.2961 39.4716 12.1365 39.2769 12.0207C39.0044 11.8572 38.7144 11.8064 38.4692 11.807C38.0844 11.8108 37.7665 11.9106 37.4476 12.0386C36.8954 12.2678 36.3371 12.6179 35.7502 13.0387C34.8749 13.6708 33.9566 14.4661 33.1444 15.2443C32.6189 15.7488 32.152 16.2347 31.761 16.6788C28.8576 14.9811 26.2612 13.7158 25.0493 13.1469C25.0946 12.9088 25.1455 12.6308 25.1966 12.3193C25.3498 11.3822 25.5065 10.1865 25.5075 9.07443C25.5034 8.35818 25.4528 7.6824 25.2221 7.05107C25.103 6.73701 24.9305 6.41779 24.6306 6.14873C24.3366 5.87716 23.8928 5.70404 23.4719 5.71115C23.3493 5.71115 23.2273 5.72334 23.1077 5.74584C22.4281 5.87193 21.723 6.15193 20.9553 6.52771C18.7144 7.63662 15.9448 9.63677 13.4986 11.5482C10.6911 12.3282 7.66148 13.6443 5.16539 15.2577C3.8882 16.0847 2.75047 16.9883 1.85523 17.9619C0.963828 18.9357 0.295859 19.9866 0.0510156 21.1508L0 21.3968L0.0730469 21.6375C0.674766 23.6203 1.96187 25.2923 3.60258 26.7004C6.07008 28.8138 9.35961 30.3835 12.7177 31.5927C16.0759 32.7988 19.506 33.6322 22.2392 34.1953C22.5369 34.2565 22.8191 34.2893 23.0913 34.2893C23.482 34.2893 23.8588 34.2204 24.1983 34.0633C24.7134 33.8311 25.0858 33.3883 25.2682 32.9481C25.4574 32.504 25.5073 32.0612 25.509 31.6397C25.5064 30.8725 25.3333 30.144 25.1711 29.5803C25.1633 29.554 25.1562 29.534 25.1489 29.5089C26.3974 28.9201 28.9302 27.6786 31.7589 26.0247C32.0045 26.3033 32.2812 26.5987 32.5859 26.9083C33.4434 27.7765 34.4921 28.7231 35.499 29.4786C36.0041 29.8565 36.4969 30.1865 36.9724 30.4388C37.2112 30.5649 37.4457 30.6719 37.6877 30.7536C37.9304 30.834 38.1804 30.8939 38.4694 30.8958C38.7142 30.8958 39.0032 30.8456 39.2758 30.6828L39.2516 30.6976L39.2773 30.6822C39.472 30.5656 39.6159 30.4067 39.7114 30.2554C39.8556 30.0264 39.9135 29.8153 39.9518 29.6171C39.9881 29.4176 39.9998 29.2251 40.0001 29.0269C39.9972 28.3466 39.8614 27.5622 39.6735 26.7036C39.2152 24.641 38.4117 22.2161 38.1173 21.3511ZM36.8343 28.0075C36.0717 27.4508 35.2193 26.712 34.4773 25.9976C33.7366 25.2858 33.0955 24.5837 32.7731 24.1512L32.238 23.4382L31.4738 23.8971C29.3819 25.152 27.3874 26.2017 25.9202 26.9353C25.1862 27.3028 24.5841 27.5904 24.1664 27.7861C23.9579 27.8846 23.7955 27.9592 23.6857 28.0087C23.576 28.059 23.5219 28.0827 23.5219 28.0827L22.6409 28.4747L23.0105 29.3653L23.0134 29.3731C23.037 29.4304 23.173 29.7753 23.2983 30.2219C23.4248 30.666 23.5345 31.2194 23.5319 31.6397C23.5321 31.8026 23.5164 31.9435 23.492 32.0439C23.4527 32.2003 23.4115 32.2389 23.3977 32.2505C23.3819 32.2594 23.3414 32.3078 23.0913 32.3122C22.978 32.3122 22.8268 32.298 22.6379 32.2594C19.9504 31.7067 16.5795 30.8822 13.3371 29.7136C13.7915 29.2952 14.1853 28.8268 14.5094 28.3138C15.2852 27.0865 15.72 25.6495 15.9694 24.1711C16.2177 22.6916 16.2792 21.1644 16.2795 19.7447C16.2795 19.3805 15.9845 19.0857 15.6205 19.0857C15.2566 19.0857 14.9616 19.3804 14.9616 19.7447C14.9625 21.5854 14.8502 23.5668 14.3807 25.2826C14.1471 26.1404 13.8256 26.9308 13.3958 27.609C13.0022 28.2294 12.5156 28.7526 11.9166 29.1735C11.3454 28.9457 10.7806 28.7083 10.2301 28.4572C8.19352 27.5305 6.3343 26.4409 4.89039 25.2001C3.52641 24.0295 2.54914 22.7379 2.05648 21.324C2.23602 20.7138 2.64953 20.0162 3.31109 19.2993C4.41992 18.0881 6.15141 16.8615 8.10242 15.8266C10.053 14.7892 12.2245 13.9333 14.213 13.3985L14.4077 13.3463L14.5664 13.2215C16.1859 11.9497 17.9683 10.6297 19.5845 9.5949C20.3919 9.07755 21.1577 8.63154 21.8297 8.30076C22.4439 7.99576 22.9777 7.7981 23.3581 7.71513C23.3935 7.80138 23.4366 7.94162 23.4656 8.1238C23.5087 8.3806 23.5309 8.71138 23.5306 9.07435C23.5316 9.99849 23.3906 11.1235 23.2459 11.9987C23.1737 12.437 23.1016 12.8148 23.0477 13.0812C23.0206 13.2144 22.9984 13.32 22.983 13.3914L22.9652 13.4718L22.9598 13.4963L22.7786 14.2891L23.5219 14.6193C23.5222 14.6199 23.576 14.6437 23.6857 14.6939C24.4527 15.0427 27.8122 16.6085 31.4734 18.8056L32.238 19.2645L32.7731 18.5515C33.0218 18.2181 33.4643 17.718 33.9927 17.1833C34.7862 16.3788 35.7856 15.479 36.6847 14.8059C37.1329 14.4693 37.5577 14.19 37.8968 14.0111C37.937 13.9898 37.9712 13.9744 38.0088 13.9564C37.9776 14.3683 37.8842 14.9429 37.7433 15.5704C37.4816 16.7533 37.0788 18.1267 36.7425 19.1944C36.5746 19.7286 36.423 20.1881 36.3139 20.5123C36.2595 20.6745 36.2154 20.8033 36.1852 20.8908C36.1552 20.9783 36.1395 21.0227 36.1395 21.0233L36.0244 21.3508L36.1395 21.6784C36.1395 21.679 36.1679 21.7595 36.22 21.912C36.4021 22.4442 36.8616 23.8182 37.2709 25.2765C37.4755 26.0051 37.6677 26.7548 37.8054 27.4222C37.9122 27.9326 37.9837 28.3985 38.0104 28.7461C37.6934 28.5911 37.2797 28.3344 36.8343 28.0075Z" fill="white"/>
<path d="M7.71949 18.666C6.87387 18.666 6.18848 19.3514 6.18848 20.1964C6.18848 21.0427 6.87387 21.7281 7.71949 21.7281C8.5648 21.7281 9.25027 21.0427 9.25027 20.1964C9.2502 19.3514 8.5648 18.666 7.71949 18.666Z" fill="white"/>
</g>
<defs>
<clipPath id="clip0_563_2105">
<rect width="40" height="40" fill="white"/>
</clipPath>
</defs>
</svg>
