<svg width="40" height="40" viewBox="0 0 40 40" fill="none" xmlns="http://www.w3.org/2000/svg">
<g clip-path="url(#clip0_563_2106)">
<path d="M33.8035 4.5217C33.7311 4.43739 33.6456 4.37199 33.5555 4.31648C33.5317 4.25753 33.5034 4.19924 33.4681 4.14374C31.2527 0.677285 25.9439 -0.375197 22.3284 1.9351C19.0072 4.05775 16.8869 8.64054 19.2457 12.3308C19.6114 12.919 20.3568 14.3552 20.7167 15.7624C20.619 15.7715 20.5206 15.7902 20.4249 15.8285C20.3944 15.841 17.3516 17.0575 14.0426 17.5062C9.96644 18.0606 7.41644 17.2606 6.46751 15.1328C6.16029 14.4434 5.22738 12.346 3.56212 12.6712C0.636147 13.2462 0.00957453 22.2065 0.00690495 22.2958C-0.299541 32.0761 5.92459 38.4096 16.656 39.2394C17.1602 39.2786 17.6658 39.297 18.1735 39.297C23.9413 39.297 29.8385 36.8254 33.2169 32.8942C35.5319 30.202 36.5113 27.0593 36.0942 23.739C36.0927 23.7112 36.0967 23.6835 36.0942 23.655C35.994 22.6377 35.0958 13.6484 34.3738 11.4208C34.3711 11.4117 34.3683 11.4036 34.3663 11.3957C34.6204 11.2772 35.192 11.162 35.5889 11.0814C36.7809 10.8409 38.2629 10.5419 39.1875 9.39758L39.9962 8.39616L38.8469 7.8153C37.7577 7.26626 34.7274 5.60111 33.8035 4.5217ZM31.6388 31.5391C28.4243 35.2785 22.3237 37.5956 16.8154 37.1661C7.18329 36.4212 1.81432 31.025 2.08629 22.3615C2.14524 20.4731 3.07448 15.8098 3.89704 14.822C4.03386 14.9773 4.26689 15.3076 4.56722 15.9805C7.48407 22.5227 18.6113 18.7338 20.8287 17.902C20.822 17.9291 20.8186 17.9589 20.8105 17.986C20.6605 18.4682 20.3547 18.7954 19.8477 19.0182C19.3214 19.2491 19.0813 19.8621 19.3123 20.3884C19.4837 20.7792 19.865 21.0122 20.266 21.0122C20.4055 21.0122 20.5468 20.9837 20.6829 20.9247C21.7384 20.4622 22.4707 19.6596 22.7971 18.604C23.7028 15.6906 21.2921 11.6815 21.0063 11.2224C19.3858 8.68547 20.9609 5.27853 23.4494 3.68824C26.0496 2.02576 30.1446 2.80672 31.7153 5.26463C31.7905 5.38187 31.8853 5.4783 31.9924 5.55394C32.01 7.27115 32.1082 8.9848 32.2158 10.6988C32.2233 10.8207 32.2524 10.9277 32.2904 11.0276C32.247 11.3494 32.2741 11.6941 32.3947 12.0642C32.8649 13.514 33.5204 19.0639 33.8685 22.3573C33.809 22.5334 33.794 22.727 33.8387 22.9221C34.562 26.0433 33.802 29.0229 31.6388 31.5391Z" fill="white"/>
<path d="M23.9675 24.7478C22.4788 23.4852 20.4499 22.6969 18.2534 22.5276C17.6763 22.491 17.1805 22.9116 17.1359 23.4847C17.0915 24.0576 17.5203 24.5575 18.0932 24.6022C19.8569 24.7385 21.4656 25.3534 22.6225 26.3348C23.6831 27.2342 24.2209 28.3308 24.1369 29.4219C24.0529 30.5124 23.3532 31.5135 22.1666 32.2395C20.8729 33.032 19.1898 33.3924 17.4251 33.2555C16.8483 33.2162 16.3521 33.641 16.3078 34.2126C16.2635 34.7855 16.6923 35.2861 17.2649 35.3301C17.5605 35.3532 17.8552 35.3641 18.1471 35.3641C20.0259 35.3641 21.8123 34.8953 23.2536 34.0148C25.0241 32.9312 26.0753 31.357 26.2129 29.5818C26.3504 27.8073 25.5512 26.0908 23.9675 24.7478Z" fill="white"/>
<path d="M27.8232 5.84375C26.4808 5.84375 26.4808 7.92447 27.8232 7.92447C29.1649 7.92447 29.1649 5.84375 27.8232 5.84375Z" fill="white"/>
</g>
<defs>
<clipPath id="clip0_563_2106">
<rect width="40" height="40" fill="white" transform="translate(-0.00390625)"/>
</clipPath>
</defs>
</svg>
