<svg width="40" height="40" viewBox="0 0 40 40" fill="none" xmlns="http://www.w3.org/2000/svg">
<path d="M22.4962 15H23.8321C25.5587 17.9922 28.7931 20 32.4962 20C33.3556 20 34.1993 19.8906 34.9962 19.6875V20V22.5V37.5C34.9962 38.8828 33.879 40 32.4962 40C31.1134 40 29.9962 38.8828 29.9962 37.5V26.5L19.3712 35H23.7462C25.129 35 26.2462 36.1172 26.2462 37.5C26.2462 38.8828 25.129 40 23.7462 40H12.4962C8.35556 40 4.99618 36.6406 4.99618 32.5V15.0391C4.99618 13.7812 4.05868 12.7109 2.80868 12.5547L2.1915 12.4766C0.824309 12.3047 -0.152253 11.0547 0.019622 9.6875C0.191497 8.32031 1.4415 7.34375 2.80868 7.51562L3.42587 7.59375C7.17587 8.0625 9.99618 11.25 9.99618 15.0391V21.7031C12.6837 17.6641 17.2774 15 22.4962 15ZM34.9962 17.0703C34.2149 17.3438 33.3712 17.5 32.4962 17.5C30.2774 17.5 28.2774 16.5312 26.9024 15C26.6134 14.6797 26.3556 14.3359 26.129 13.9688C25.4102 12.8125 24.9962 11.4531 24.9962 10V2.5V0.9375V0.835938C24.9962 0.375 25.3634 0.0078125 25.8243 0H25.8399C26.0977 0 26.3399 0.125 26.4962 0.328125V0.335938L27.4962 1.66406L29.6212 4.5L29.9962 5H34.9962L35.3712 4.5L37.4962 1.66406L38.4962 0.335938V0.328125C38.6524 0.125 38.8946 0 39.1524 0H39.1681C39.629 0.0078125 39.9962 0.375 39.9962 0.835938V0.9375V2.5V10C39.9962 11.3516 39.6368 12.625 39.0118 13.7188C38.129 15.2656 36.6993 16.4688 34.9962 17.0703ZM31.2462 10C31.2462 9.66848 31.1145 9.35054 30.8801 9.11612C30.6456 8.8817 30.3277 8.75 29.9962 8.75C29.6647 8.75 29.3467 8.8817 29.1123 9.11612C28.8779 9.35054 28.7462 9.66848 28.7462 10C28.7462 10.3315 28.8779 10.6495 29.1123 10.8839C29.3467 11.1183 29.6647 11.25 29.9962 11.25C30.3277 11.25 30.6456 11.1183 30.8801 10.8839C31.1145 10.6495 31.2462 10.3315 31.2462 10ZM34.9962 11.25C35.3277 11.25 35.6456 11.1183 35.8801 10.8839C36.1145 10.6495 36.2462 10.3315 36.2462 10C36.2462 9.66848 36.1145 9.35054 35.8801 9.11612C35.6456 8.8817 35.3277 8.75 34.9962 8.75C34.6647 8.75 34.3467 8.8817 34.1123 9.11612C33.8779 9.35054 33.7462 9.66848 33.7462 10C33.7462 10.3315 33.8779 10.6495 34.1123 10.8839C34.3467 11.1183 34.6647 11.25 34.9962 11.25Z" fill="white"/>
</svg>
