<svg width="40" height="40" viewBox="0 0 40 40" fill="none" xmlns="http://www.w3.org/2000/svg">
<path d="M2.08301 17.5006C2.08301 18.191 2.64266 18.7506 3.33301 18.7506C4.02336 18.7506 4.58301 18.191 4.58301 17.5006H2.08301ZM5.12219 26.0446C4.85801 25.4068 4.12679 25.104 3.48899 25.3681C2.85119 25.6323 2.54831 26.3635 2.81249 27.0013L5.12219 26.0446ZM22.8865 36.2835L23.79 34.7571L21.6385 33.4836L20.735 35.0101L22.8865 36.2835ZM16.2093 34.7571L17.1128 36.2835L19.2642 35.0101L18.3607 33.4836L16.2093 34.7571ZM20.735 35.0101C20.4138 35.5528 19.5855 35.5528 19.2642 35.0101L17.1128 36.2835C18.4022 38.4618 21.5972 38.4618 22.8865 36.2835L20.735 35.0101ZM17.4997 4.58398H22.4997V2.08398H17.4997V4.58398ZM35.4163 17.5006V19.1673H37.9163V17.5006H35.4163ZM13.0038 30.4033C10.9114 30.3671 9.81506 30.2341 8.95566 29.8781L7.99896 32.1878C9.34057 32.7435 10.8686 32.8668 12.9608 32.9028L13.0038 30.4033ZM2.81249 27.0013C3.78514 29.3495 5.65077 31.2151 7.99896 32.1878L8.95566 29.8781C7.22004 29.1591 5.84111 27.7803 5.12219 26.0446L2.81249 27.0013ZM35.4163 19.1673C35.4163 21.1258 35.4157 22.5321 35.34 23.6418C35.265 24.7403 35.1207 25.4566 34.8772 26.0446L37.1868 27.0013C37.5777 26.058 37.7505 25.0378 37.8342 23.812C37.917 22.5975 37.9163 21.0917 37.9163 19.1673H35.4163ZM27.0385 32.9028C29.1307 32.8668 30.6588 32.7435 32.0003 32.1878L31.0437 29.8781C30.1843 30.2341 29.0878 30.3671 26.9955 30.4033L27.0385 32.9028ZM34.8772 26.0446C34.1582 27.7803 32.7793 29.1591 31.0437 29.8781L32.0003 32.1878C34.3485 31.2151 36.2142 29.3495 37.1868 27.0013L34.8772 26.0446ZM22.4997 4.58398C25.2517 4.58398 27.228 4.5853 28.7695 4.73187C30.2925 4.87667 31.2615 5.15437 32.034 5.62778L33.3403 3.49618C32.1088 2.7416 30.712 2.4053 29.0062 2.2431C27.3188 2.08267 25.2033 2.08398 22.4997 2.08398V4.58398ZM37.9163 17.5006C37.9163 14.797 37.9177 12.6815 37.7572 10.9942C37.595 9.28825 37.2587 7.8914 36.5042 6.66003L34.3725 7.96628C34.846 8.73883 35.1237 9.70788 35.2685 11.2308C35.415 12.7723 35.4163 14.7486 35.4163 17.5006H37.9163ZM32.034 5.62778C32.9872 6.21185 33.7885 7.01318 34.3725 7.96628L36.5042 6.66003C35.714 5.37055 34.6298 4.28638 33.3403 3.49618L32.034 5.62778ZM17.4997 2.08398C14.796 2.08398 12.6805 2.08267 10.9932 2.2431C9.28727 2.4053 7.89042 2.7416 6.65906 3.49618L7.96531 5.62778C8.73786 5.15437 9.70691 4.87667 11.2298 4.73187C12.7713 4.5853 14.7476 4.58398 17.4997 4.58398V2.08398ZM4.58301 17.5006C4.58301 14.7486 4.58433 12.7723 4.73089 11.2308C4.87569 9.70788 5.15339 8.73883 5.62681 7.96628L3.49521 6.66003C2.74062 7.8914 2.40432 9.28825 2.24212 10.9942C2.08169 12.6815 2.08301 14.797 2.08301 17.5006H4.58301ZM6.65906 3.49618C5.36957 4.28638 4.28541 5.37055 3.49521 6.66003L5.62681 7.96628C6.21088 7.01318 7.01221 6.21185 7.96531 5.62778L6.65906 3.49618ZM18.3607 33.4836C18.0223 32.912 17.7253 32.4075 17.4365 32.0112C17.1322 31.5938 16.7833 31.218 16.2994 30.9365L15.0425 33.0976C15.1216 33.1435 15.2292 33.2273 15.4161 33.4836C15.6184 33.7613 15.8469 34.1448 16.2093 34.7571L18.3607 33.4836ZM12.9608 32.9028C13.6926 32.9155 14.1561 32.9248 14.5095 32.9638C14.8397 33.0005 14.9676 33.054 15.0425 33.0976L16.2994 30.9365C15.8115 30.6526 15.3038 30.5365 14.7846 30.479C14.2887 30.4241 13.6893 30.4151 13.0038 30.4033L12.9608 32.9028ZM23.79 34.7571C24.1523 34.1448 24.3808 33.7613 24.5832 33.4836C24.77 33.2273 24.8777 33.1435 24.9567 33.0976L23.6998 30.9365C23.216 31.218 22.867 31.5938 22.5628 32.0112C22.274 32.4075 21.977 32.912 21.6385 33.4836L23.79 34.7571ZM26.9955 30.4033C26.31 30.4151 25.7107 30.4241 25.2147 30.479C24.6955 30.5365 24.1878 30.6526 23.6998 30.9365L24.9567 33.0976C25.0317 33.054 25.1597 33.0005 25.4898 32.9638C25.8432 32.9248 26.3067 32.9155 27.0385 32.9028L26.9955 30.4033Z" fill="white"/>
</svg>
