<svg width="40" height="40" viewBox="0 0 40 40" fill="none" xmlns="http://www.w3.org/2000/svg">
<path d="M8.33301 31.6667V10.3333C8.33301 8.4665 8.33301 7.53307 8.69632 6.82003C9.01589 6.19282 9.52582 5.68288 10.153 5.36332C10.8661 5 11.7995 5 13.6663 5H26.333C28.1998 5 29.1333 5 29.8463 5.36332C30.4735 5.68288 30.9835 6.19282 31.303 6.82003C31.6663 7.53307 31.6663 8.4665 31.6663 10.3333V28.3333H11.6663C9.82539 28.3333 8.33301 29.8257 8.33301 31.6667ZM8.33301 31.6667C8.33301 33.5077 9.82539 35 11.6663 35H31.6663M29.9997 28.3333V35M24.9997 22.5C24.527 20.5982 22.468 19.1667 19.9997 19.1667C17.5313 19.1667 15.4724 20.5982 14.9997 22.5M19.9997 12.5H20.0163M21.6663 12.5C21.6663 13.4205 20.9202 14.1667 19.9997 14.1667C19.0792 14.1667 18.333 13.4205 18.333 12.5C18.333 11.5795 19.0792 10.8333 19.9997 10.8333C20.9202 10.8333 21.6663 11.5795 21.6663 12.5Z" stroke="white" stroke-width="2" stroke-linecap="round" stroke-linejoin="round"/>
</svg>
