<svg width="40" height="40" viewBox="0 0 40 40" fill="none" xmlns="http://www.w3.org/2000/svg">
<path d="M5 15H35M11.6667 5V8.33333M28.3333 5V8.33333M10 20H13.3333M18.3333 20H21.6667M26.6667 20H30M10 25H13.3333M18.3333 25H21.6667M26.6667 25H30M10 30H13.3333M18.3333 30H21.6667M26.6667 30H30M10.3333 35H29.6667C31.5335 35 32.467 35 33.18 34.6367C33.8072 34.3172 34.3172 33.8072 34.6367 33.18C35 32.467 35 31.5335 35 29.6667V13.6667C35 11.7998 35 10.8664 34.6367 10.1534C34.3172 9.52615 33.8072 9.01622 33.18 8.69665C32.467 8.33333 31.5335 8.33333 29.6667 8.33333H10.3333C8.4665 8.33333 7.53307 8.33333 6.82003 8.69665C6.19282 9.01622 5.68288 9.52615 5.36332 10.1534C5 10.8664 5 11.7998 5 13.6667V29.6667C5 31.5335 5 32.467 5.36332 33.18C5.68288 33.8072 6.19282 34.3172 6.82003 34.6367C7.53307 35 8.46648 35 10.3333 35Z" stroke="white" stroke-width="2" stroke-linecap="round"/>
</svg>
