<svg width="40" height="40" viewBox="0 0 40 40" fill="none" xmlns="http://www.w3.org/2000/svg">
<path d="M20.0018 8.33333C22.3888 8.33333 24.678 9.17618 26.3658 10.6765C28.0537 12.1768 29.0018 14.2116 29.0018 16.3333C29.0018 19.6152 29.7437 22.0727 30.7057 23.8798C31.9347 26.1888 32.5492 27.3433 32.515 27.607C32.4752 27.9148 32.4243 27.9995 32.1713 28.1792C31.9545 28.3333 30.876 28.3333 28.7188 28.3333H11.2848C9.12762 28.3333 8.04907 28.3333 7.83226 28.1792C7.57934 27.9995 7.52852 27.9148 7.48866 27.607C7.45447 27.3433 8.06899 26.1888 9.29804 23.8798C10.26 22.0727 11.0018 19.6152 11.0018 16.3333C11.0018 14.2116 11.95 12.1768 13.6378 10.6765C15.3257 9.17618 17.6148 8.33333 20.0018 8.33333ZM20.0018 8.33333V5M15.5918 33.3333C16.7688 34.3722 18.315 35.0027 20.0085 35.0027C21.7018 35.0027 23.248 34.3722 24.4252 33.3333" stroke="white" stroke-width="2" stroke-linecap="round" stroke-linejoin="round"/>
</svg>
