<svg width="30" height="30" viewBox="0 0 30 30" fill="none" xmlns="http://www.w3.org/2000/svg">
<g clip-path="url(#clip0_563_2167)">
<mask id="mask0_563_2167" style="mask-type:luminance" maskUnits="userSpaceOnUse" x="0" y="4" width="30" height="22">
<path d="M27.8571 4.28516H2.14286C0.95939 4.28516 0 5.24455 0 6.42801V23.5709C0 24.7543 0.95939 25.7137 2.14286 25.7137H27.8571C29.0406 25.7137 30 24.7543 30 23.5709V6.42801C30 5.24455 29.0406 4.28516 27.8571 4.28516Z" fill="white"/>
</mask>
<g mask="url(#mask0_563_2167)">
<path d="M30 4.28516H0V25.7137H30V4.28516Z" fill="url(#paint0_linear_563_2167)"/>
<path d="M30 4.28516H0V8.57087H30V4.28516Z" fill="url(#paint1_linear_563_2167)"/>
<path d="M30 8.57031H0V12.856H30V8.57031Z" fill="url(#paint2_linear_563_2167)"/>
<path d="M30 12.8574H0V17.1431H30V12.8574Z" fill="url(#paint3_linear_563_2167)"/>
<path d="M30 17.1426H0V21.4283H30V17.1426Z" fill="url(#paint4_linear_563_2167)"/>
<path d="M30 21.4277H0V25.7134H30V21.4277Z" fill="url(#paint5_linear_563_2167)"/>
</g>
</g>
<defs>
<linearGradient id="paint0_linear_563_2167" x1="15" y1="4.28516" x2="15" y2="25.7137" gradientUnits="userSpaceOnUse">
<stop stop-color="white"/>
<stop offset="1" stop-color="#F0F0F0"/>
</linearGradient>
<linearGradient id="paint1_linear_563_2167" x1="15" y1="4.28516" x2="15" y2="8.57087" gradientUnits="userSpaceOnUse">
<stop stop-color="#F71E24"/>
<stop offset="1" stop-color="#FB141B"/>
</linearGradient>
<linearGradient id="paint2_linear_563_2167" x1="15" y1="8.57031" x2="15" y2="12.856" gradientUnits="userSpaceOnUse">
<stop stop-color="#FB6C2C"/>
<stop offset="1" stop-color="#FC6420"/>
</linearGradient>
<linearGradient id="paint3_linear_563_2167" x1="15" y1="12.8574" x2="15" y2="17.1431" gradientUnits="userSpaceOnUse">
<stop stop-color="#FDFC42"/>
<stop offset="1" stop-color="#FFFD38"/>
</linearGradient>
<linearGradient id="paint4_linear_563_2167" x1="15" y1="17.1426" x2="15" y2="21.4283" gradientUnits="userSpaceOnUse">
<stop stop-color="#238F35"/>
<stop offset="1" stop-color="#1C7E2C"/>
</linearGradient>
<linearGradient id="paint5_linear_563_2167" x1="15" y1="21.4277" x2="15" y2="25.7134" gradientUnits="userSpaceOnUse">
<stop stop-color="#0F62FA"/>
<stop offset="1" stop-color="#0059FC"/>
</linearGradient>
<clipPath id="clip0_563_2167">
<rect width="30" height="30" fill="white"/>
</clipPath>
</defs>
</svg>
