<svg width="520" height="520" viewBox="0 0 520 520" fill="none" xmlns="http://www.w3.org/2000/svg">
<g filter="url(#filter0_d_625_3345)">
<g clip-path="url(#clip0_625_3345)">
<rect x="4" width="512" height="512" rx="30" fill="white"/>
<g filter="url(#filter1_f_625_3345)">
<ellipse cx="94.6117" cy="56.4021" rx="90.6117" ry="56.4021" fill="#D2E4A6"/>
</g>
<g filter="url(#filter2_f_625_3345)">
<ellipse cx="235.808" cy="122.935" rx="51.4639" ry="32.0342" fill="#87C48B"/>
</g>
<g filter="url(#filter3_f_625_3345)">
<ellipse cx="101.649" cy="470.931" rx="65.9794" ry="41.0695" fill="#F9E27A"/>
</g>
<g filter="url(#filter4_f_625_3345)">
<ellipse cx="228.77" cy="408.231" rx="26.8316" ry="16.7016" fill="#CD81AA"/>
</g>
<g filter="url(#filter5_f_625_3345)">
<ellipse cx="410.433" cy="371.269" rx="86.2131" ry="53.6642" fill="#91A6C8"/>
</g>
<g filter="url(#filter6_f_625_3345)">
<ellipse cx="360.729" cy="473.943" rx="61.1409" ry="38.0578" fill="#E587AF"/>
</g>
<g filter="url(#filter7_f_625_3345)">
<ellipse cx="144.756" cy="359.221" rx="47.5052" ry="29.5701" fill="#FF9A7E"/>
</g>
<g filter="url(#filter8_f_625_3345)">
<ellipse cx="410.433" cy="76.6634" rx="105.567" ry="65.7112" fill="#81C2CC"/>
</g>
<g filter="url(#filter9_f_625_3345)">
<ellipse cx="385.8" cy="191.11" rx="24.6323" ry="15.3326" fill="#FFA755"/>
</g>
<g clip-path="url(#clip1_625_3345)">
<path d="M133.826 113.489C133.826 113.489 129.615 98.1486 144.942 93.9337C160.269 89.7189 164.48 105.06 164.48 105.06L168.691 120.4C168.691 120.4 172.902 135.741 157.575 139.956C142.248 144.171 138.037 128.83 138.037 128.83L133.826 113.489ZM301.245 182.941C301.245 182.941 316.572 178.726 320.783 194.067C324.994 209.408 309.667 213.622 309.667 213.622L294.34 217.837C294.34 217.837 279.013 222.052 274.802 206.711C270.591 191.371 285.918 187.156 285.918 187.156L301.245 182.941ZM71.3419 246.163C71.3419 246.163 86.6687 241.949 90.8798 257.289C95.0908 272.63 79.7639 276.845 79.7639 276.845L64.437 281.06C64.437 281.06 49.1102 285.274 44.8992 269.934C40.6881 254.593 56.015 250.378 56.015 250.378L71.3419 246.163ZM92.2536 168.585C92.2536 168.585 106.067 176.451 98.208 190.277C90.3491 204.103 76.5358 196.237 76.5358 196.237L62.717 188.381C62.717 188.381 48.9037 180.515 56.7605 166.681C64.6271 152.853 78.4404 160.719 78.4404 160.719L92.2536 168.585ZM297.401 285.407C297.401 285.407 311.215 293.273 303.356 307.099C295.497 320.925 281.684 313.059 281.684 313.059L267.87 305.193C267.87 305.193 254.057 297.327 261.916 283.501C269.775 269.675 283.588 277.541 283.588 277.541L297.401 285.407ZM255.975 146.892C255.975 146.892 248.116 160.718 234.303 152.852C220.49 144.986 228.349 131.16 228.349 131.16L236.207 117.334C236.207 117.334 244.066 103.508 257.88 111.374C271.693 119.24 263.834 133.066 263.834 133.066L255.975 146.892ZM139.259 352.225C139.259 352.225 131.4 366.051 117.587 358.185C103.773 350.319 111.632 336.493 111.632 336.493L119.491 322.667C119.491 322.667 127.35 308.842 141.163 316.708C154.977 324.574 147.118 338.399 147.118 338.399L139.259 352.225ZM196.991 343.6C196.991 343.6 192.78 328.259 208.107 324.045C223.434 319.83 227.645 335.171 227.645 335.171L231.856 350.511C231.856 350.511 236.067 365.852 220.74 370.067C205.413 374.282 201.202 358.941 201.202 358.941L196.991 343.6Z" fill="#F9E27A"/>
<path d="M203.896 308.704C246.22 297.065 271.103 253.289 259.475 210.926C247.847 168.564 204.11 143.658 161.786 155.297C119.462 166.936 94.5781 210.712 106.206 253.075C117.835 295.437 161.572 320.343 203.896 308.704Z" fill="#F9E27A"/>
</g>
<path d="M148.438 276.406L155.281 265.391C157.438 267.141 159.516 268.578 161.516 269.703C163.547 270.797 165.547 271.609 167.516 272.141C169.484 272.641 171.5 272.891 173.562 272.891C176 272.891 178.109 272.547 179.891 271.859C181.672 271.172 183.047 270.188 184.016 268.906C185.016 267.625 185.516 266.141 185.516 264.453C185.516 262.484 184.891 260.828 183.641 259.484C182.391 258.141 180.75 256.969 178.719 255.969C176.719 254.938 174.547 253.953 172.203 253.016C169.922 252.078 167.625 251.062 165.312 249.969C163.031 248.844 160.922 247.516 158.984 245.984C157.078 244.453 155.531 242.594 154.344 240.406C153.188 238.188 152.609 235.5 152.609 232.344C152.609 228.219 153.641 224.656 155.703 221.656C157.797 218.656 160.656 216.344 164.281 214.719C167.906 213.094 172.047 212.281 176.703 212.281C179.984 212.281 183.391 212.719 186.922 213.594C190.484 214.469 194.031 215.797 197.562 217.578L191.891 229.25C189.672 227.906 187.281 226.844 184.719 226.062C182.156 225.281 179.75 224.891 177.5 224.891C175.469 224.891 173.688 225.203 172.156 225.828C170.656 226.453 169.484 227.328 168.641 228.453C167.797 229.547 167.375 230.844 167.375 232.344C167.375 234.125 167.984 235.672 169.203 236.984C170.422 238.266 172 239.406 173.938 240.406C175.906 241.406 178.016 242.406 180.266 243.406C182.578 244.406 184.906 245.5 187.25 246.688C189.625 247.875 191.781 249.281 193.719 250.906C195.688 252.5 197.266 254.422 198.453 256.672C199.672 258.891 200.281 261.562 200.281 264.688C200.281 268.812 199.188 272.438 197 275.562C194.812 278.656 191.766 281.078 187.859 282.828C183.953 284.547 179.406 285.406 174.219 285.406C169.469 285.406 164.922 284.641 160.578 283.109C156.234 281.578 152.188 279.344 148.438 276.406Z" fill="#FFA755"/>
<path d="M255.219 284H244.297L243.828 276.5C242.172 279.25 239.969 281.344 237.219 282.781C234.5 284.219 231.312 284.938 227.656 284.938C221.656 284.938 216.953 283.094 213.547 279.406C210.141 275.719 208.438 270.656 208.438 264.219V237.125H221.891V261.125C221.891 264.781 222.75 267.656 224.469 269.75C226.219 271.812 228.594 272.844 231.594 272.844C234.719 272.844 237.188 271.766 239 269.609C240.844 267.422 241.766 264.469 241.766 260.75V237.125H255.219V284Z" fill="#81C2CC"/>
<path d="M313.438 284H299.984V260C299.984 256.344 299.109 253.484 297.359 251.422C295.641 249.328 293.281 248.281 290.281 248.281C287.156 248.281 284.672 249.375 282.828 251.562C281.016 253.719 280.109 256.656 280.109 260.375V284H266.656V237.125H277.531L278 244.625C279.688 241.875 281.891 239.781 284.609 238.344C287.328 236.906 290.531 236.188 294.219 236.188C300.188 236.188 304.875 238.031 308.281 241.719C311.719 245.375 313.438 250.438 313.438 256.906V284Z" fill="#87C48B"/>
<path d="M370.719 284H357.266V260C357.266 256.344 356.391 253.484 354.641 251.422C352.922 249.328 350.562 248.281 347.562 248.281C344.438 248.281 341.953 249.375 340.109 251.562C338.297 253.719 337.391 256.656 337.391 260.375V284H323.938V237.125H334.812L335.281 244.625C336.969 241.875 339.172 239.781 341.891 238.344C344.609 236.906 347.812 236.188 351.5 236.188C357.469 236.188 362.156 238.031 365.562 241.719C369 245.375 370.719 250.438 370.719 256.906V284Z" fill="#FA9C7E"/>
<path d="M402.828 307.438H388.484L398.234 283.953L374.562 237.125H389.75L404.609 268.625L417.641 237.125H431.938L402.828 307.438Z" fill="#CD81AA"/>
</g>
</g>
<defs>
<filter id="filter0_d_625_3345" x="0" y="0" width="520" height="520" filterUnits="userSpaceOnUse" color-interpolation-filters="sRGB">
<feFlood flood-opacity="0" result="BackgroundImageFix"/>
<feColorMatrix in="SourceAlpha" type="matrix" values="0 0 0 0 0 0 0 0 0 0 0 0 0 0 0 0 0 0 127 0" result="hardAlpha"/>
<feOffset dy="4"/>
<feGaussianBlur stdDeviation="2"/>
<feComposite in2="hardAlpha" operator="out"/>
<feColorMatrix type="matrix" values="0 0 0 0 0 0 0 0 0 0 0 0 0 0 0 0 0 0 0.25 0"/>
<feBlend mode="normal" in2="BackgroundImageFix" result="effect1_dropShadow_625_3345"/>
<feBlend mode="normal" in="SourceGraphic" in2="effect1_dropShadow_625_3345" result="shape"/>
</filter>
<filter id="filter1_f_625_3345" x="-96" y="-100" width="381.224" height="312.805" filterUnits="userSpaceOnUse" color-interpolation-filters="sRGB">
<feFlood flood-opacity="0" result="BackgroundImageFix"/>
<feBlend mode="normal" in="SourceGraphic" in2="BackgroundImageFix" result="shape"/>
<feGaussianBlur stdDeviation="50" result="effect1_foregroundBlur_625_3345"/>
</filter>
<filter id="filter2_f_625_3345" x="84.3438" y="-9.09961" width="302.928" height="264.068" filterUnits="userSpaceOnUse" color-interpolation-filters="sRGB">
<feFlood flood-opacity="0" result="BackgroundImageFix"/>
<feBlend mode="normal" in="SourceGraphic" in2="BackgroundImageFix" result="shape"/>
<feGaussianBlur stdDeviation="50" result="effect1_foregroundBlur_625_3345"/>
</filter>
<filter id="filter3_f_625_3345" x="-64.3301" y="329.861" width="331.959" height="282.139" filterUnits="userSpaceOnUse" color-interpolation-filters="sRGB">
<feFlood flood-opacity="0" result="BackgroundImageFix"/>
<feBlend mode="normal" in="SourceGraphic" in2="BackgroundImageFix" result="shape"/>
<feGaussianBlur stdDeviation="50" result="effect1_foregroundBlur_625_3345"/>
</filter>
<filter id="filter4_f_625_3345" x="101.938" y="291.529" width="253.663" height="233.403" filterUnits="userSpaceOnUse" color-interpolation-filters="sRGB">
<feFlood flood-opacity="0" result="BackgroundImageFix"/>
<feBlend mode="normal" in="SourceGraphic" in2="BackgroundImageFix" result="shape"/>
<feGaussianBlur stdDeviation="50" result="effect1_foregroundBlur_625_3345"/>
</filter>
<filter id="filter5_f_625_3345" x="224.22" y="217.604" width="372.426" height="307.328" filterUnits="userSpaceOnUse" color-interpolation-filters="sRGB">
<feFlood flood-opacity="0" result="BackgroundImageFix"/>
<feBlend mode="normal" in="SourceGraphic" in2="BackgroundImageFix" result="shape"/>
<feGaussianBlur stdDeviation="50" result="effect1_foregroundBlur_625_3345"/>
</filter>
<filter id="filter6_f_625_3345" x="199.588" y="335.885" width="322.282" height="276.115" filterUnits="userSpaceOnUse" color-interpolation-filters="sRGB">
<feFlood flood-opacity="0" result="BackgroundImageFix"/>
<feBlend mode="normal" in="SourceGraphic" in2="BackgroundImageFix" result="shape"/>
<feGaussianBlur stdDeviation="50" result="effect1_foregroundBlur_625_3345"/>
</filter>
<filter id="filter7_f_625_3345" x="-2.74902" y="229.651" width="295.011" height="259.14" filterUnits="userSpaceOnUse" color-interpolation-filters="sRGB">
<feFlood flood-opacity="0" result="BackgroundImageFix"/>
<feBlend mode="normal" in="SourceGraphic" in2="BackgroundImageFix" result="shape"/>
<feGaussianBlur stdDeviation="50" result="effect1_foregroundBlur_625_3345"/>
</filter>
<filter id="filter8_f_625_3345" x="204.866" y="-89.0479" width="411.134" height="331.423" filterUnits="userSpaceOnUse" color-interpolation-filters="sRGB">
<feFlood flood-opacity="0" result="BackgroundImageFix"/>
<feBlend mode="normal" in="SourceGraphic" in2="BackgroundImageFix" result="shape"/>
<feGaussianBlur stdDeviation="50" result="effect1_foregroundBlur_625_3345"/>
</filter>
<filter id="filter9_f_625_3345" x="261.168" y="75.7773" width="249.265" height="230.665" filterUnits="userSpaceOnUse" color-interpolation-filters="sRGB">
<feFlood flood-opacity="0" result="BackgroundImageFix"/>
<feBlend mode="normal" in="SourceGraphic" in2="BackgroundImageFix" result="shape"/>
<feGaussianBlur stdDeviation="50" result="effect1_foregroundBlur_625_3345"/>
</filter>
<clipPath id="clip0_625_3345">
<rect x="4" width="512" height="512" rx="30" fill="white"/>
</clipPath>
<clipPath id="clip1_625_3345">
<rect width="286.125" height="286.347" fill="white" transform="matrix(0.964206 -0.265153 0.264708 0.964329 7 131.867)"/>
</clipPath>
</defs>
</svg>
